<?xml version="1.0" encoding="utf-8"?>
<!-- Generator: Adobe Illustrator 27.0.0, SVG Export Plug-In . SVG Version: 6.00 Build 0)  -->
<svg version="1.0" id="Layer_1" xmlns="http://www.w3.org/2000/svg" xmlns:xlink="http://www.w3.org/1999/xlink" x="0px" y="0px"
	 viewBox="0 0 64 64" style="enable-background:new 0 0 64 64;" xml:space="preserve">
<style type="text/css">
	.st0{fill:url(#SVGID_1_);}
	.st1{fill:url(#SVGID_00000069393384955472102790000003574129958462046352_);}
	.st2{fill:url(#SVGID_00000034052008437800488190000014474890980091063681_);}
	.st3{fill:url(#SVGID_00000175304902474526098720000014876311160273555351_);}
</style>
<g>
	<linearGradient id="SVGID_1_" gradientUnits="userSpaceOnUse" x1="2.485685e-04" y1="29.7913" x2="36.4185" y2="29.7913">
		<stop  offset="0.1099" style="stop-color:#91D5EA"/>
		<stop  offset="0.3568" style="stop-color:#79BEBC"/>
		<stop  offset="0.9144" style="stop-color:#3E8349"/>
		<stop  offset="1" style="stop-color:#357A37"/>
	</linearGradient>
	<path class="st0" d="M36.4,32c0,4.1-1.7,7.9-4.3,10.6c0,0,0,0-0.1,0.1c0,0,0,0-0.1,0.1L21.3,53.3c1.7-1.7,3-3.9,3.8-6.2
		c0.1-0.2,0.1-0.3,0.1-0.5c0.3-1.2,0.5-2.6,0.5-3.9c0-4.2-1.7-7.9-4.4-10.7L0,10.7c0,0,0,0,0.1-0.1c2.7-2.7,6.5-4.4,10.6-4.4
		c0.6,0,1.2,0,1.8,0.1c3.4,0.4,6.5,2,8.8,4.3h0l10.6,10.6c0,0,0,0,0.1,0.1c0,0,0,0,0.1,0.1C34.8,24.1,36.4,27.9,36.4,32z"/>
	
		<linearGradient id="SVGID_00000100342633115244836850000003970432887580494252_" gradientUnits="userSpaceOnUse" x1="34.7127" y1="32.0006" x2="-14.592" y2="32.0006">
		<stop  offset="0.2655" style="stop-color:#2D897A"/>
		<stop  offset="0.8761" style="stop-color:#D9EFA4"/>
	</linearGradient>
	<path style="fill:url(#SVGID_00000100342633115244836850000003970432887580494252_);" d="M21.3,32c-2.3,2.3-5.4,3.9-8.8,4.3
		c-0.6,0.1-1.2,0.1-1.8,0.1c-1.3,0-2.7-0.2-3.9-0.5c-2.5-0.7-4.8-2-6.6-3.8c0,0,0,0,0,0C0,32,0,32,0,32c0,0,0.1-0.1,0.1-0.1
		c1.8-1.8,4.1-3.1,6.6-3.8c1.2-0.3,2.6-0.5,3.9-0.5c0.6,0,1.2,0,1.8,0.1C15.9,28.1,19,29.7,21.3,32z"/>
	
		<linearGradient id="SVGID_00000031207513057844777650000010711565187114929840_" gradientUnits="userSpaceOnUse" x1="5.4176" y1="58.8411" x2="28.3427" y2="34.7976">
		<stop  offset="3.952320e-02" style="stop-color:#2A9476"/>
		<stop  offset="0.8761" style="stop-color:#195658"/>
	</linearGradient>
	<path style="fill:url(#SVGID_00000031207513057844777650000010711565187114929840_);" d="M25.8,42.7c0,1.4-0.2,2.7-0.5,3.9
		c0,0.2-0.1,0.3-0.1,0.5c-0.7,2.4-2,4.5-3.8,6.2c-2.3,2.3-5.4,3.9-8.8,4.3c-0.6,0.1-1.2,0.1-1.8,0.1c-4.1,0-7.9-1.7-10.6-4.4
		c0,0,0,0-0.1-0.1c0.1-0.1,0.2-0.2,0.3-0.3l6-6l4.4-4.4l1.8-1.8l8.8-8.8C24.1,34.7,25.8,38.5,25.8,42.7z"/>
	
		<linearGradient id="SVGID_00000141414887042028952570000016259249909746562232_" gradientUnits="userSpaceOnUse" x1="58.1535" y1="5.1746" x2="27.2757" y2="38.1005">
		<stop  offset="0.2655" style="stop-color:#2D897A"/>
		<stop  offset="0.8761" style="stop-color:#D9EFA4"/>
	</linearGradient>
	<path style="fill:url(#SVGID_00000141414887042028952570000016259249909746562232_);" d="M64,10.7l-6.2,6.2l-4.4,4.4L42.7,32h0
		L32.1,42.6c2.7-2.7,4.3-6.5,4.3-10.6c0-4.1-1.7-7.9-4.3-10.6c0,0,0,0-0.1-0.1l4.4-4.4l6.2-6.2c2.7-2.7,6.5-4.4,10.7-4.4
		c1.5,0,3,0.2,4.4,0.7C60.1,7.6,62.3,8.9,64,10.7z"/>
</g>
</svg>
